HIERARCHY
ROOT reference
{
  OFFSET 0 0 0
  CHANNELS 6 Xposition Yposition Zposition Zrotation Xrotation Yrotation
  JOINT Hips
  {
    OFFSET 34.2675 94.8174 133.911
    CHANNELS 6 Xposition Yposition Zposition Zrotation Xrotation Yrotation
    JOINT Spine
    {
      OFFSET 0 8.22665 0
      CHANNELS 6 Xposition Yposition Zposition Zrotation Xrotation Yrotation
      JOINT Spine1
      {
        OFFSET 0 24.451 0
        CHANNELS 6 Xposition Yposition Zposition Zrotation Xrotation Yrotation
        JOINT Neck
        {
          OFFSET 0 24.3506 2.21369
          CHANNELS 6 Xposition Yposition Zposition Zrotation Xrotation Yrotation
          JOINT Head
          {
            OFFSET 0 14.0455 -2.0065
            CHANNELS 6 Xposition Yposition Zposition Zrotation Xrotation Yrotation
            End Site
            {
              OFFSET 0 25.0812 0
            }
          }
        }
        JOINT LeftShoulder
        {
          OFFSET 4.0594 22.2558 -0.272799
          CHANNELS 6 Xposition Yposition Zposition Zrotation Xrotation Yrotation
          JOINT LeftArm
          {
            OFFSET 12.0298 0 0
            CHANNELS 6 Xposition Yposition Zposition Zrotation Xrotation Yrotation
            JOINT LeftForeArm
            {
              OFFSET 31.2689 0 0
              CHANNELS 6 Xposition Yposition Zposition Zrotation Xrotation Yrotation
              JOINT LeftHand
              {
                OFFSET 28.0275 0 0
                CHANNELS 6 Xposition Yposition Zposition Zrotation Xrotation Yrotation
                End Site
                {
                  OFFSET 15.0487 0 0
                }
              }
            }
          }
        }
        JOINT RightShoulder
        {
          OFFSET -3.96464 22.2558 -0.272799
          CHANNELS 6 Xposition Yposition Zposition Zrotation Xrotation Yrotation
          JOINT RightArm
          {
            OFFSET -12.0298 0 0
            CHANNELS 6 Xposition Yposition Zposition Zrotation Xrotation Yrotation
            JOINT RightForeArm
            {
              OFFSET -31.2689 0 0
              CHANNELS 6 Xposition Yposition Zposition Zrotation Xrotation Yrotation
              JOINT RightHand
              {
                OFFSET -28.0275 0 0
                CHANNELS 6 Xposition Yposition Zposition Zrotation Xrotation Yrotation
                End Site
                {
                  OFFSET -15.0487 0 0
                }
              }
            }
          }
        }
      }
    }
    JOINT LeftUpLeg
    {
      OFFSET 10.0325 0 0
      CHANNELS 6 Xposition Yposition Zposition Zrotation Xrotation Yrotation
      JOINT LeftLeg
      {
        OFFSET 0 -38.4033 0
        CHANNELS 6 Xposition Yposition Zposition Zrotation Xrotation Yrotation
        JOINT LeftFoot
        {
          OFFSET 0 -44.1642 0
          CHANNELS 6 Xposition Yposition Zposition Zrotation Xrotation Yrotation
          JOINT LeftToeBase
          {
            OFFSET 0 -6.52112 15.0487
            CHANNELS 6 Xposition Yposition Zposition Zrotation Xrotation Yrotation
            End Site
            {
              OFFSET 0 0 4.013
            }
          }
        }
      }
    }
    JOINT RightUpLeg
    {
      OFFSET -10.0325 0 0
      CHANNELS 6 Xposition Yposition Zposition Zrotation Xrotation Yrotation
      JOINT RightLeg
      {
        OFFSET 0 -38.4033 0
        CHANNELS 6 Xposition Yposition Zposition Zrotation Xrotation Yrotation
        JOINT RightFoot
        {
          OFFSET 0 -44.1642 0
          CHANNELS 6 Xposition Yposition Zposition Zrotation Xrotation Yrotation
          JOINT RightToeBase
          {
            OFFSET 0 -6.52112 15.0487
            CHANNELS 6 Xposition Yposition Zposition Zrotation Xrotation Yrotation
            End Site
            {
              OFFSET 0 0 4.013
            }
          }
        }
      }
    }
  }
}
MOTION
Frames:	11
Frame Time:	0.004
0 0 0 0 0 -0 -24.8785 85.4759 -209.142 0.333392 -1.55071 1.60531 3.55271e-015 8.22665 2.84217e-014 0.340061 -5.50306 0.0940718 0 24.451 0 -0.929068 2.38667 0.0962377 0 24.3506 2.21369 7.6719 21.6463 14.2812 0 14.0455 -2.0065 -13.5045 -7.41533 12.528 4.0594 22.2558 -0.272799 21.7019 2.0052 -2.3389 12.0298 0 2.84217e-014 -22.4025 9.4053 -0.49086 31.2689 -2.84217e-014 0 0.660146 -6.21486 6.63302 28.0275 2.84217e-014 0 32.7935 -4.57117 5.73914 -3.96464 22.2558 -0.272799 -17.0773 -1.02777 -0.140573 -12.0298 -2.84217e-014 -2.84217e-014 12.0515 8.11391 9.38908 -31.2689 -2.84217e-014 -2.84217e-014 1.30455 0.319474 -5.60096 -28.0275 0 0 -12.9495 0.270442 0.996726 10.0325 -1.42109e-014 0 -0.431998 7.55955 1.66085 0 -38.4033 0 -3.19104 2.23016 -3.15943 -3.55271e-015 -44.1642 0 2.13561 -9.17317 14.8855 0 -6.52112 15.0487 9.93923e-017 -1.98785e-016 3.18055e-015 -10.0325 1.42109e-014 2.84217e-014 -2.71512 -0.731314 2.85812 0 -38.4033 0 0.963893 18.7818 2.62441 -7.10543e-015 -44.1642 0 2.11722 -16.5535 -15.2554 -1.42109e-014 -6.52112 15.0487 -3.10601e-017 4.96962e-017 -0 
0 0 0 0 0 -0 -24.8785 85.4759 -209.137 0.333668 -1.5434 1.62314 0 8.22665 0 0.340068 -5.50762 0.0940725 0 24.451 0 -0.922043 2.38667 0.0962377 -3.55271e-015 24.3506 2.21369 7.67066 21.5693 14.2735 1.42109e-014 14.0455 -2.0065 -13.4911 -7.32721 12.5294 4.0594 22.2558 -0.272799 21.7019 2.00408 -2.3389 12.0298 2.84217e-014 0 -22.4026 9.38892 -0.490836 31.2689 -2.84217e-014 -2.84217e-014 0.628561 -6.20571 6.61985 28.0275 0 0 32.8076 -4.55835 5.73904 -3.96464 22.2558 -0.272799 -17.0905 -1.04517 -0.144912 -12.0298 0 0 12.0651 8.12889 9.36958 -31.2689 2.84217e-014 0 1.30331 0.307382 -5.59069 -28.0275 0 0 -12.9712 0.256572 1.0083 10.0325 0 2.84217e-014 -0.436642 7.55705 1.65131 0 -38.4033 2.84217e-014 -3.19192 2.23021 -3.13676 0 -44.1642 2.84217e-014 2.12039 -9.1687 14.8869 0 -6.52112 15.0487 1.98785e-016 1.98785e-016 3.18055e-015 -10.0325 1.42109e-014 0 -2.7164 -0.732808 2.82115 3.55271e-015 -38.4033 0 0.955039 18.782 2.61259 3.55271e-015 -44.1642 -2.84217e-014 2.1385 -16.5372 -15.2251 0 -6.52112 15.0487 1.2424e-016 9.93923e-017 -0 
0 0 0 0 0 -0 -24.8785 85.4759 -209.132 0.33474 -1.56387 1.64116 3.55271e-015 8.22665 0 0.340016 -5.47581 0.0940675 -3.55271e-015 24.451 -2.84217e-014 -0.908594 2.38667 0.0962377 3.55271e-015 24.3506 2.21369 7.68495 21.5571 14.2723 0 14.0455 -2.0065 -13.5273 -7.3463 12.5168 4.0594 22.2558 -0.272799 21.7083 1.99488 -2.33888 12.0298 -2.84217e-014 0 -22.411 9.38488 -0.490831 31.2689 -1.42109e-014 0 0.626573 -6.19823 6.62303 28.0275 -5.68434e-014 0 32.814 -4.55113 5.73665 -3.96464 22.2558 -0.272799 -17.0947 -1.05676 -0.162487 -12.0298 2.84217e-014 0 12.0688 8.14647 9.36623 -31.2689 0 0 1.29827 0.306695 -5.59161 -28.0275 0 -2.84217e-014 -12.9392 0.253832 1.02493 10.0325 0 0 -0.416309 7.5804 1.66075 1.77636e-015 -38.4033 0 -3.18952 2.23353 -3.19373 0 -44.1642 0 2.14891 -9.21116 14.9122 7.10543e-015 -6.52112 15.0487 2.98177e-016 1.98785e-016 3.18055e-015 -10.0325 0 0 -2.70023 -0.701754 2.8384 -3.55271e-015 -38.4033 -5.68434e-014 0.957424 18.7823 2.59397 -7.10543e-015 -44.1642 0 2.14723 -16.5604 -15.24 1.42109e-014 -6.52112 15.0487 1.11816e-016 4.96962e-017 -0 
0 0 0 0 0 -0 -24.8785 85.4759 -209.128 0.333998 -1.53502 1.64432 -7.10543e-015 8.22665 0 0.340071 -5.50958 0.0940728 -3.55271e-015 24.451 2.84217e-014 -0.911741 2.39284 0.0962381 3.55271e-015 24.3506 2.21369 7.67359 21.5213 14.2687 0 14.0455 -2.0065 -13.5101 -7.33065 12.5201 4.0594 22.2558 -0.272799 21.7119 1.98392 -2.33887 12.0298 0 0 -22.4325 9.40977 -0.490866 31.2689 1.42109e-014 0 0.653142 -6.19706 6.63619 28.0275 0 0 32.7741 -4.5531 5.72718 -3.96464 22.2558 -0.272799 -17.0959 -1.0552 -0.179614 -12.0298 2.84217e-014 5.68434e-014 12.0666 8.15865 9.36442 -31.2689 -2.84217e-014 2.84217e-014 1.29289 0.296716 -5.59647 -28.0275 0 2.84217e-014 -12.9289 0.241983 1.0419 10.0325 0 0 -0.435077 7.56018 1.64193 -1.77636e-015 -38.4033 2.84217e-014 -3.19296 2.21245 -3.13504 0 -44.1642 -2.84217e-014 2.11905 -9.17667 14.8723 0 -6.52112 15.0487 -1.49089e-016 1.98785e-016 -0 -10.0325 1.42109e-014 0 -2.71155 -0.738402 2.90072 -3.55271e-015 -38.4033 -2.84217e-014 0.972757 18.7974 2.4553 -1.06581e-014 -44.1642 0 2.15529 -16.548 -15.1631 0 -6.52112 15.0487 -4.34841e-017 9.93923e-017 -1.59028e-015 
0 0 0 0 0 -0 -24.8785 85.4759 -209.124 0.334663 -1.53577 1.6683 -3.55271e-015 8.22665 2.84217e-014 0.340058 -5.50117 0.0940715 0 24.451 2.84217e-014 -0.90836 2.38234 0.0962373 -3.55271e-015 24.3506 2.21369 7.71157 21.5464 14.2712 0 14.0455 -2.0065 -13.5992 -7.37796 12.4978 4.0594 22.2558 -0.272799 21.7286 1.97455 -2.33885 12.0298 2.84217e-014 0 -22.4564 9.42537 -0.489787 31.2689 -1.42109e-014 2.84217e-014 0.660808 -6.19723 6.6381 28.0275 2.84217e-014 -2.84217e-014 32.7687 -4.55652 5.74069 -3.96464 22.2558 -0.272799 -17.0961 -1.05131 -0.1787 -12.0298 -2.84217e-014 -2.84217e-014 12.0746 8.13531 9.36192 -31.2689 0 2.84217e-014 1.27798 0.340619 -5.6105 -28.0275 -2.84217e-014 -2.84217e-014 -12.8479 0.282413 1.07438 10.0325 0 0 -0.426011 7.55554 1.66653 1.77636e-015 -38.4033 0 -3.18946 2.22496 -3.20748 0 -44.1642 0 2.11522 -9.19831 14.8799 -7.10543e-015 -6.52112 15.0487 -2.98177e-016 1.98785e-016 -0 -10.0325 1.42109e-014 2.84217e-014 -2.70219 -0.729661 2.87842 0 -38.4033 0 0.970587 18.794 2.48607 -3.55271e-015 -44.1642 -2.84217e-014 2.15865 -16.5628 -15.2009 -1.42109e-014 -6.52112 15.0487 2.79541e-016 -4.96962e-017 1.59028e-015 
0 0 0 0 0 -0 -24.8785 85.4759 -209.117 0.335131 -1.54399 1.6768 0 8.22665 -2.84217e-014 0.340038 -5.48924 0.0940696 3.55271e-015 24.451 5.68434e-014 -0.904716 2.37695 0.096237 0 24.3506 2.21369 7.70352 21.4986 14.2664 0 14.0455 -2.0065 -13.5813 -7.33985 12.4906 4.0594 22.2558 -0.272799 21.7237 1.97336 -2.33885 12.0298 0 0 -22.4474 9.4284 -0.487703 31.2689 0 0 0.660159 -6.19727 6.6372 28.0275 0 -2.84217e-014 32.7353 -4.55888 5.72838 -3.96464 22.2558 -0.272799 -17.0969 -1.04956 -0.191797 -12.0298 2.84217e-014 0 12.077 8.1503 9.36044 -31.2689 -2.84217e-014 0 1.25641 0.214122 -5.59644 -28.0275 2.84217e-014 0 -12.8817 0.156375 1.05768 10.0325 -1.42109e-014 0 -0.418958 7.57363 1.6599 1.77636e-015 -38.4033 -2.84217e-014 -3.19893 2.2169 -3.16905 0 -44.1642 2.84217e-014 2.13073 -9.20009 14.8631 1.42109e-014 -6.52112 15.0487 -3.97569e-016 0 -6.36111e-015 -10.0325 1.42109e-014 0 -2.70072 -0.689627 2.86603 0 -38.4033 -2.84217e-014 0.968705 18.7525 2.53973 -3.55271e-015 -44.1642 2.84217e-014 2.08457 -16.5645 -15.2359 0 -6.52112 15.0487 1.05604e-016 0 -1.59028e-015 
0 0 0 0 0 -0 -24.8785 85.4759 -209.111 0.334702 -1.52073 1.68627 0 8.22665 0 0.340086 -5.51815 0.0940741 -1.06581e-014 24.451 -2.84217e-014 -0.902842 2.37596 0.0962369 -3.55271e-015 24.3506 2.21369 7.72734 21.4998 14.2656 1.42109e-014 14.0455 -2.0065 -13.6312 -7.36451 12.4781 4.0594 22.2558 -0.272799 21.723 1.97287 -2.34268 12.0298 0 0 -22.4468 9.43063 -0.480186 31.2689 1.42109e-014 2.84217e-014 0.657683 -6.19609 6.63573 28.0275 -2.84217e-014 0 32.7273 -4.5538 5.7426 -3.96464 22.2558 -0.272799 -17.0988 -1.06001 -0.206078 -12.0298 -2.84217e-014 -2.84217e-014 12.0792 8.16365 9.35902 -31.2689 0 0 1.29002 0.236363 -5.59136 -28.0275 0 2.84217e-014 -13.0124 0.181437 1.03579 10.0325 -1.42109e-014 2.84217e-014 -0.421835 7.55603 1.6617 -1.77636e-015 -38.4033 0 -3.19365 2.2103 -3.15865 3.55271e-015 -44.1642 0 2.11967 -9.19782 14.8421 1.42109e-014 -6.52112 15.0487 -4.96962e-017 1.98785e-016 -0 -10.0325 1.42109e-014 -2.84217e-014 -2.70368 -0.710189 2.80093 3.55271e-015 -38.4033 -2.84217e-014 0.953883 18.7585 2.57348 3.55271e-015 -44.1642 0 2.09442 -16.5606 -15.2059 0 -6.52112 15.0487 -1.05604e-016 4.96962e-017 1.59028e-015 
0 0 0 0 0 -0 -24.8785 85.4759 -209.108 0.334155 -1.49631 1.69282 3.55271e-015 8.22665 0 0.340126 -5.54293 0.0940781 -3.55271e-015 24.451 0 -0.901061 2.37581 0.0962369 3.55271e-015 24.3506 2.21369 7.71599 21.4641 14.2621 -7.10543e-015 14.0455 -2.0065 -13.6192 -7.34543 12.4675 4.0594 22.2558 -0.272799 21.7232 1.97281 -2.34161 12.0298 -2.84217e-014 -2.84217e-014 -22.4655 9.44891 -0.471055 31.2689 1.42109e-014 0 0.674052 -6.18017 6.63394 28.0275 -5.68434e-014 2.84217e-014 32.6926 -4.53765 5.75286 -3.96464 22.2558 -0.272799 -17.1074 -1.05688 -0.208991 -12.0298 0 0 12.0854 8.1661 9.35743 -31.2689 0 -2.84217e-014 1.25526 0.177567 -5.60605 -28.0275 2.84217e-014 0 -12.9019 0.116717 1.08212 10.0325 0 2.84217e-014 -0.443257 7.53312 1.68544 0 -38.4033 -2.84217e-014 -3.17393 2.20643 -3.17392 0 -44.1642 0 2.10433 -9.18138 14.8271 0 -6.52112 15.0487 -1.49089e-016 0 6.36111e-015 -10.0325 0 0 -2.7173 -0.727422 2.84253 -3.55271e-015 -38.4033 0 0.97572 18.7476 2.52025 -3.55271e-015 -44.1642 0 2.10112 -16.5595 -15.2158 0 -6.52112 15.0487 -7.45443e-017 -4.96962e-017 3.18055e-015 
0 0 0 0 0 -0 -24.8785 85.4759 -209.101 0.334783 -1.50602 1.70579 -3.55271e-015 8.22665 0 0.340107 -5.5309 0.0940762 -3.55271e-015 24.451 0 -0.899635 2.37568 0.0962369 -7.10543e-015 24.3506 2.21369 7.74283 21.473 14.261 7.10543e-015 14.0455 -2.0065 -13.6825 -7.37125 12.4607 4.0594 22.2558 -0.272799 21.7248 1.97292 -2.33982 12.0298 -2.84217e-014 0 -22.4651 9.44172 -0.461117 31.2689 -1.42109e-014 2.84217e-014 0.662216 -6.17143 6.63189 28.0275 -2.84217e-014 0 32.6952 -4.52883 5.75026 -3.96464 22.2558 -0.272799 -17.1172 -1.06046 -0.216718 -12.0298 2.84217e-014 0 12.0934 8.17024 9.35702 -31.2689 -2.84217e-014 -2.84217e-014 1.23823 0.227567 -5.63825 -28.0275 0 0 -12.7463 0.162103 1.13145 10.0325 0 0 -0.430545 7.55336 1.66187 0 -38.4033 -2.84217e-014 -3.18646 2.19389 -3.19915 -3.55271e-015 -44.1642 0 2.13448 -9.18452 14.8568 -1.42109e-014 -6.52112 15.0487 9.93923e-017 -3.97569e-016 -0 -10.0325 0 0 -2.71438 -0.710333 2.82768 -3.55271e-015 -38.4033 0 0.974793 18.7478 2.53932 1.06581e-014 -44.1642 0 2.11332 -16.5708 -15.2323 0 -6.52112 15.0487 -3.54085e-016 9.93923e-017 -0 
0 0 0 0 0 -0 -24.8785 85.4759 -209.098 0.334882 -1.49531 1.72179 0 8.22665 0 0.340118 -5.5377 0.0940772 0 24.451 2.84217e-014 -0.898825 2.37508 0.0962368 -3.55271e-015 24.3506 2.21369 7.74418 21.4421 14.2442 0 14.0455 -2.0065 -13.6674 -7.36403 12.4449 4.0594 22.2558 -0.272799 21.7342 1.9729 -2.33786 12.0298 0 0 -22.4634 9.44306 -0.466499 31.2689 -1.42109e-014 0 0.655532 -6.15972 6.62967 28.0275 0 0 32.6908 -4.51414 5.7597 -3.96464 22.2558 -0.272799 -17.1032 -1.06523 -0.222262 -12.0298 -2.84217e-014 0 12.0896 8.18473 9.34641 -31.2689 2.84217e-014 -2.84217e-014 1.24326 0.202172 -5.63637 -28.0275 2.84217e-014 2.84217e-014 -12.8197 0.136906 1.12613 10.0325 0 -2.84217e-014 -0.426426 7.54076 1.67933 1.77636e-015 -38.4033 2.84217e-014 -3.17898 2.19583 -3.20158 1.77636e-015 -44.1642 2.84217e-014 2.16985 -9.17782 14.8161 0 -6.52112 15.0487 4.96962e-017 0 -0 -10.0325 0 2.84217e-014 -2.70409 -0.713214 2.8339 -7.10543e-015 -38.4033 -2.84217e-014 0.97584 18.7379 2.46929 -3.55271e-015 -44.1642 0 2.13165 -16.5602 -15.1852 0 -6.52112 15.0487 -9.31803e-017 0 -0 
0 0 0 0 0 -0 -24.8785 85.4759 -209.092 0.335098 -1.48907 1.73732 0 8.22665 0 0.340126 -5.54241 0.094078 -3.55271e-015 24.451 0 -0.898896 2.37434 0.0962368 0 24.3506 2.21369 7.75163 21.4771 14.2401 7.10543e-015 14.0455 -2.0065 -13.714 -7.43143 12.4262 4.0594 22.2558 -0.272799 21.732 1.9725 -2.33632 12.0298 2.84217e-014 0 -22.4783 9.46801 -0.458923 31.2689 -1.42109e-014 0 0.678553 -6.16757 6.62854 28.0275 0 2.84217e-014 32.711 -4.51263 5.79247 -3.96464 22.2558 -0.272799 -17.1102 -1.06877 -0.225785 -12.0298 0 0 12.0966 8.19698 9.34395 -31.2689 -2.84217e-014 2.84217e-014 1.26628 0.06569 -5.61827 -28.0275 0 0 -13.0465 0.003713 1.08957 10.0325 -1.42109e-014 0 -0.423752 7.53348 1.66429 0 -38.4033 0 -3.1872 2.19702 -3.15948 0 -44.1642 -2.84217e-014 2.16228 -9.17939 14.7864 7.10543e-015 -6.52112 15.0487 1.10348e-032 1.98785e-016 -3.18055e-015 -10.0325 0 0 -2.70069 -0.719866 2.90336 0 -38.4033 0 0.993615 18.7469 2.38775 -3.55271e-015 -44.1642 0 2.11682 -16.5579 -15.1867 0 -6.52112 15.0487 1.11816e-016 9.93923e-017 -0 
